<svg xmlns="http://www.w3.org/2000/svg" width="35" height="41" viewBox="0 0 35 41">
  <path fill="#2DBE60" fill-rule="evenodd" d="M33.252,7.514 C32.953,5.918 32.004,5.131 31.145,4.822 C30.219,4.488 28.341,4.141 25.982,3.863 C24.084,3.639 21.852,3.658 20.504,3.699 C20.342,2.592 19.565,1.576 18.695,1.226 C16.379,0.294 12.829,0.52 11.91,0.777 C11.179,0.981 10.34,1.403 9.891,2.047 C9.589,2.478 9.425,3.029 9.423,3.799 C9.423,4.234 9.435,5.262 9.446,6.174 C9.457,7.089 9.439,7.908 9.439,7.913 C9.438,8.728 8.777,9.421 7.959,9.423 L4.203,9.423 C3.402,9.423 2.79,9.558 2.322,9.77 C1.854,9.983 1.522,10.238 1.27,10.577 C0.768,11.25 0.681,12.081 0.683,12.929 C0.683,12.929 0.69,13.621 0.857,14.962 C0.996,16 2.122,23.247 3.191,25.451 C3.606,26.308 3.882,26.666 4.696,27.044 C6.511,27.821 10.656,28.685 12.599,28.932 C14.538,29.18 15.755,29.701 16.48,28.181 C16.482,28.177 16.625,27.803 16.822,27.253 C17.452,25.346 17.54,23.655 17.54,22.43 C17.54,22.306 17.722,22.3 17.722,22.43 C17.722,23.294 17.557,26.354 19.869,27.174 C20.782,27.497 22.676,27.786 24.6,28.012 C26.34,28.212 27.602,28.896 27.602,33.357 C27.602,36.071 27.032,36.443 24.05,36.443 C21.633,36.443 20.711,36.505 20.711,34.587 C20.711,33.035 22.246,33.198 23.384,33.198 C23.892,33.198 23.523,32.82 23.523,31.864 C23.523,30.911 24.119,30.343 23.555,30.329 C19.621,30.221 17.307,30.343 17.307,35.26 C17.307,39.724 19.016,40.552 24.6,40.552 C28.977,40.552 30.52,40.409 32.328,34.804 C32.686,33.697 33.551,30.321 34.074,24.651 C34.405,21.065 33.762,10.245 33.252,7.514 Z M25.621,19.474 C25.08,19.455 24.56,19.489 24.075,19.567 C24.212,18.465 24.667,17.113 26.279,17.169 C28.064,17.231 28.313,18.917 28.32,20.058 C27.567,19.723 26.636,19.509 25.621,19.474 Z M4.048,8.302 C4.048,8.302 4.048,8.302 4.05,8.302 L7.806,8.302 C8.021,8.302 8.195,8.127 8.195,7.914 C8.195,7.913 8.149,4.695 8.149,3.801 L8.149,3.789 C8.149,3.054 8.303,2.414 8.572,1.877 L8.7,1.636 C8.686,1.638 8.672,1.645 8.657,1.659 L1.36,8.893 C1.346,8.904 1.337,8.919 1.333,8.935 C1.484,8.86 1.69,8.758 1.719,8.745 C2.354,8.458 3.125,8.302 4.048,8.302 Z"/>
</svg>
