<?xml version="1.0" standalone="no"?>
<!DOCTYPE svg PUBLIC "-//W3C//DTD SVG 20010904//EN"
 "http://www.w3.org/TR/2001/REC-SVG-20010904/DTD/svg10.dtd">
<svg version="1.0" xmlns="http://www.w3.org/2000/svg"
 width="256.000000pt" height="256.000000pt" viewBox="0 0 256.000000 256.000000"
 preserveAspectRatio="xMidYMid meet">
<metadata>
Created by potrace 1.13, written by Peter Selinger 2001-2015
</metadata>
<g transform="translate(0.000000,256.000000) scale(0.100000,-0.100000)"
fill="#000000" stroke="none">
<path d="M1675 2490 c-118 -25 -265 -97 -316 -156 -16 -19 -29 -51 -28 -68 0
-5 -3 -12 -8 -15 -17 -12 -84 -157 -90 -194 -4 -25 -9 -34 -14 -26 -12 21 -23
-39 -11 -64 6 -12 20 -62 31 -110 12 -48 43 -132 68 -185 26 -53 49 -104 50
-112 2 -8 7 -44 13 -80 6 -36 12 -71 15 -77 2 -7 -1 -13 -7 -13 -24 0 17 -28
65 -44 36 -12 68 -37 132 -100 47 -47 85 -83 85 -80 0 2 8 -4 18 -13 11 -10
17 -22 15 -28 -12 -27 39 45 56 80 42 85 41 88 -38 119 -230 90 -410 299 -460
534 -56 264 112 508 382 555 56 9 81 9 145 -5 42 -8 78 -15 78 -14 1 0 -5 25
-14 54 l-15 52 -56 -1 c-31 -1 -74 -5 -96 -9z"/>
<path d="M1906 1793 c-3 -21 -6 -54 -5 -73 0 -30 1 -32 9 -13 12 29 58 38 198
38 61 0 112 3 112 7 0 11 -121 47 -214 63 -49 8 -90 15 -91 15 -1 0 -5 -17 -9
-37z"/>
<path d="M1587 959 c-29 -17 -157 -59 -232 -75 -99 -22 -316 -29 -428 -14 -51
7 -126 23 -167 36 -41 13 -76 22 -78 20 -5 -5 105 -46 122 -46 8 0 24 -11 37
-25 13 -13 29 -25 35 -25 5 0 64 -17 130 -38 66 -22 185 -49 266 -62 87 -14
144 -28 141 -34 -4 -5 10 4 30 20 35 27 115 132 166 217 23 38 16 48 -22 26z"/>
</g>
</svg>
