<?xml version="1.0" encoding="utf-8"?>
<!-- Generator: Adobe Illustrator 19.0.0, SVG Export Plug-In . SVG Version: 6.00 Build 0)  -->
<svg version="1.1" id="Layer_1" xmlns="http://www.w3.org/2000/svg" xmlns:xlink="http://www.w3.org/1999/xlink" x="0px" y="0px"
	 viewBox="0 0 1000 1000" style="enable-background:new 0 0 1000 1000;" xml:space="preserve">
<style type="text/css">
	.st0{fill:url(#XMLID_2_);}
	.st1{fill:url(#XMLID_3_);}
	.st2{fill:url(#XMLID_4_);}
	.st3{fill:url(#XMLID_5_);}
	.st4{fill:#1A1A1A;}
</style>
<g id="XMLID_590_">
	<linearGradient id="XMLID_2_" gradientUnits="userSpaceOnUse" x1="858.7505" y1="456.6255" x2="709.5005" y2="505.6255">
		<stop  offset="0" style="stop-color:#35BED6"/>
		<stop  offset="1" style="stop-color:#25003A"/>
	</linearGradient>
	<path id="XMLID_589_" class="st0" d="M726.1,397.7c-56.6,0-102.5,45.9-102.5,102.5c0,11.5,1.9,22.6,5.4,33
		c31.4-6,46.7-9.8,58.3-50.7c8.8-31,19.2-43.7,19.2-43.7s-0.6,11.7,4.1,17.8c0.8-12.7,11.3-24.9,23.4-27c-6.9,8-7.9,15.6-7,19.2
		c4.1-7.1,21.2-16.9,42.8-8c-19.8,1.4-30.3,11-31.6,18.4c-1.1,6.5,1.8,9.6,1.8,9.6c13.8-0.9,17.6,11.4,20.4,11.4s7.9,3.6,7.8,8.2
		c-0.2,8.1-6.8,5.8-6.8,10.4c0,4.1,2.6,6.9,3.4,6.2c1.7-1.8,5.2-2.6,7.5-1.2c5.6,3.4-0.8,8.2,5.2,12.8s12,11.5,12,17.7
		c0,4.9-2.9,3.9-3,4.5s-0.7,10.5-12,14.8c-7.2,2.7-10,0.5-11,1c-4.5,2.1-12.7,4.6-25.7,2.6c-1.3-0.2,7.7,24.2,0.1,44.9
		c51.1-5.8,90.7-49.2,90.7-101.8C828.6,443.6,782.7,397.7,726.1,397.7z"/>
	<linearGradient id="XMLID_3_" gradientUnits="userSpaceOnUse" x1="791.2037" y1="438.3112" x2="694.8703" y2="526.6445">
		<stop  offset="0" style="stop-color:#35BED6"/>
		<stop  offset="1" style="stop-color:#25003A"/>
	</linearGradient>
	<path id="XMLID_588_" class="st1" d="M687.3,482.4c8.8-31,19.2-43.7,19.2-43.7s-0.6,11.7,4.1,17.8c0.8-12.7,11.3-24.9,23.4-27
		c-6.9,8-7.9,15.6-7,19.2c4.1-7.1,21.2-16.9,42.8-8c-19.8,1.4-30.3,11-31.6,18.4c-1.1,6.5,1.8,9.6,1.8,9.6
		c13.8-0.9,17.6,11.4,20.4,11.4s7.9,3.6,7.8,8.2c-0.2,8.1-6.8,5.8-6.8,10.4c0,4.1,2.6,6.9,3.4,6.2c1.7-1.8,5.2-2.6,7.5-1.2
		c5.6,3.4-0.8,8.2,5.2,12.8s12,11.5,12,17.7c0,4.9-2.9,3.9-3,4.5c0,0.2-0.2,2-1,4.2c9.2,3.8,18.1,8.3,26.6,13.2
		c10.5-16.1,16.6-35.3,16.6-55.9c0-56.6-45.9-102.5-102.5-102.5c-56.6,0-102.5,45.9-102.5,102.5c0,11.5,1.9,22.6,5.4,33
		C660.5,527.1,675.8,523.3,687.3,482.4z"/>
	<linearGradient id="XMLID_4_" gradientUnits="userSpaceOnUse" x1="782.1317" y1="419.1589" x2="634.1317" y2="538.4922">
		<stop  offset="0" style="stop-color:#35BED6"/>
		<stop  offset="1" style="stop-color:#25003A"/>
	</linearGradient>
	<path id="XMLID_587_" class="st2" d="M687.3,482.4c8.8-31,19.2-43.7,19.2-43.7s-0.6,11.7,4.1,17.8c0.8-12.7,11.3-24.9,23.4-27
		c-6.9,8-7.9,15.6-7,19.2c4.1-7.1,21.2-16.9,42.8-8c-19.8,1.4-30.3,11-31.6,18.4c-1.1,6.5,1.8,9.6,1.8,9.6
		c13.8-0.9,17.6,11.4,20.4,11.4c0.8,0,1.9,0.3,2.9,0.9c12.3-2,24.9-3.1,37.7-3.1c8.6,0,17,0.5,25.3,1.4
		c-9.7-46.6-50.9-81.5-100.4-81.5c-56.6,0-102.5,45.9-102.5,102.5c0,11.5,1.9,22.6,5.4,33C660.5,527.1,675.8,523.3,687.3,482.4z"/>
	<linearGradient id="XMLID_5_" gradientUnits="userSpaceOnUse" x1="729.4926" y1="402.7548" x2="632.1592" y2="535.0881">
		<stop  offset="0" style="stop-color:#35BED6"/>
		<stop  offset="1" style="stop-color:#25003A"/>
	</linearGradient>
	<path id="XMLID_586_" class="st3" d="M629.7,533c16.4-32.3,40.2-60.2,69.2-81.5c4.4-8.9,7.6-12.8,7.6-12.8s-0.2,3.2,0.3,7.2
		c3.8-2.5,7.7-5,11.6-7.3c4.2-4.7,9.7-8.1,15.6-9.1c-0.3,0.4-0.7,0.8-1,1.2c15-7.4,30.9-13.3,47.5-17.3
		c-15.8-9.9-34.5-15.7-54.5-15.7c-56.6,0-102.5,45.9-102.5,102.5c0,11.5,1.9,22.6,5.4,33C629.3,533.1,629.5,533,629.7,533z"/>
</g>
<g id="XMLID_1250_">
	<path id="XMLID_14_" class="st4" d="M265.7,397.7c-56.6,0-102.5,45.9-102.5,102.5c0,11.5,1.9,22.6,5.4,33
		c31.4-6,46.7-9.8,58.3-50.7c8.8-31,19.2-43.7,19.2-43.7s-0.6,11.7,4.1,17.8c0.8-12.7,11.3-24.9,23.4-27c-6.9,8-7.9,15.6-7,19.2
		c4.1-7.1,21.2-16.9,42.8-8c-19.8,1.4-30.3,11-31.6,18.4c-1.1,6.5,1.8,9.6,1.8,9.6c13.8-0.9,17.6,11.4,20.4,11.4s7.9,3.6,7.8,8.2
		c-0.2,8.1-6.8,5.8-6.8,10.4c0,4.1,2.6,6.9,3.4,6.2c1.7-1.8,5.2-2.6,7.5-1.2c5.6,3.4-0.8,8.2,5.2,12.8s12,11.5,12,17.7
		c0,4.9-2.9,3.9-3,4.5s-0.7,10.5-12,14.8c-7.2,2.7-10,0.5-11,1c-4.5,2.1-12.7,4.6-25.7,2.6c-1.3-0.2,7.7,24.2,0.1,44.9
		c51.1-5.8,90.7-49.2,90.7-101.8C368.2,443.6,322.3,397.7,265.7,397.7z"/>
</g>
</svg>
